Patient4_TMGait_0pt6_02_left_06_EMG.mot
version=1
nRows=16
nColumns=33
inDegrees=no
endheader
time	1LAddLong	2LGlutMax	3LGlutMed	4LIliopsoas	5LSemiMemb	6LBicFemLong	7LRecFem	8LVastMed	9LVastLat	10LGasMed	11LTibAnt	12lTibPost	13LPeroneusLong	14LSol	15LExtDigLong	16LFlexDigLong	17RAddLong	18RGlutMax	19RGlutMed	20RIliopsoas	21RSemiMemb	22RBicFemLong	23RRecFem	24RVastMed	25RVastLat	26RGasMed	27RTibAnt	28RTibPost	29RPeroneusLong	30RSol	31RExtDigLong	32RFlexDigLong
8.513	-0.001831	0.092316	-0.020599	-0.016174	0.016785	0.099487	-0.083008	0.008698	0.053864	-0.032043	-0.049133	0.001678	0.058289	-0.19745	-0.19623	0.001526	0.022583	-0.14572	0.17578	-0.027466	-0.024567	0.03418	-0.050201	-0.023651	0.20371	0.001526	0.027771	-0.015717	-0.085907	-0.32425	0.007324	-0.022888
8.514	0.001831	0.061188	-0.023041	-0.007019	0.021515	0.1149	-0.10422	0.021362	0.055847	-0.031128	-0.045319	-0.000458	0.033112	-0.12619	-0.08728	-0.006866	-0.012665	-0.12848	-0.18906	0.016632	0.10376	-0.033875	-0.079498	0.057831	0.17151	-0.006866	0.13489	-0.0177	-0.083771	-0.31723	0.006714	-0.01709
8.515	0.001068	0.049286	-0.024261	0.030212	-0.037537	0.11261	-0.091858	0.024719	0.062561	-0.025482	-0.036316	0.000305	0.03479	-0.074615	-0.13153	0.00061	0.017242	-0.095367	-0.063324	0.067749	0.13275	-0.1355	0.09079	0.11673	0.19302	0.005493	-0.086212	-0.00824	0.053711	-0.33997	0.008392	-0.015259
8.516	0.010071	0.016022	-0.046234	0.010834	-0.10834	0.09491	-0.11612	0.016022	0.066528	-0.019684	-0.021973	-0.000458	0.042725	-0.066223	-0.095825	-0.000153	0.00473	-0.095673	0.11215	0.094299	-0.073853	-0.087891	0.008545	-0.018311	-0.041504	-0.008392	-0.19119	-0.003204	0.14984	-0.26398	0.008698	-0.002899
8.517	0.014191	-0.01236	-0.050659	0.010223	-0.11993	0.047913	-0.13809	0.00824	0.067596	-0.023651	-0.012665	-0.004883	0.021057	-0.031128	-0.022736	0.001984	-0.022278	-0.11795	-0.19302	0.084229	-0.22415	0.036926	0.006561	-0.089264	-0.018005	-0.015106	-0.1033	-0.008392	0.10925	0.10315	0.010681	-0.001831
8.518	0.012665	-0.024109	-0.063019	0.007019	-0.007629	0.056305	-0.12085	0.012512	0.068817	-0.028229	-0.006714	0.003357	-0.00473	-0.027618	0.013275	-0.011139	-0.049438	-0.11459	-0.27435	0.059052	-0.0177	0.12466	0.040283	-0.1506	0.15198	-0.014343	-0.015106	-0.00946	-0.036316	0.30441	0.005188	-0.005798
8.519	0.019684	-0.020447	-0.09201	0.015564	0.007172	0.0354	-0.11795	0.016022	0.063477	-0.042572	-0.001373	-0.002136	0.005646	-0.027618	0.027161	0.000153	-0.011749	-0.18143	-0.50369	-0.019531	0.071869	0.17807	-0.041962	-0.18768	0.15091	-0.009155	0.060883	-0.007477	-0.08316	0.062408	0.005951	-0.005188
8.52	0.011444	-0.030975	-0.11063	0.003204	0.004425	-0.021362	-0.13397	0.019531	0.062408	-0.048828	-0.002594	-0.01358	0.003204	-0.055847	0.038452	0.007782	-0.01358	-0.19623	-0.24414	-0.033569	0.13886	0.14328	-0.093384	-0.20065	-0.13367	0.015564	-0.007019	-0.007935	0.006104	0.39505	0.007019	-0.001221
8.521	0.014343	-0.048523	-0.050049	-0.00885	0.074158	-0.037384	-0.13001	-0.001221	0.070801	-0.036621	0.004578	0.002441	-0.006256	-0.039063	0.032196	0.00061	-0.015259	-0.18051	-0.21179	0.006409	0.075989	0.087585	0.003967	-0.14893	-0.89523	0.014343	-0.051117	-0.015869	0.097351	0.56183	0.019684	-0.000763
8.522	0.019226	-0.04303	-0.025024	0.010376	0.072327	0.027008	-0.14481	0.014801	0.066681	-0.028381	0.014343	-0.000305	0.003662	-0.048065	0.026855	0.006256	-0.009155	-0.17777	0.13397	0.045471	-0.093689	0.071259	-0.32196	-0.036163	-0.94849	0.007629	-0.056305	-0.022736	0.16739	0.55649	0.007172	-0.001678
8.523	0.020294	-0.078125	-0.065918	0.013428	0.056763	0.063782	-0.12329	0.013275	0.05661	-0.032959	0.004578	-0.002136	0.03418	-0.035706	0.023193	0.005798	-0.00061	-0.17105	-0.1712	0.06012	-0.27893	0.03952	-0.34943	0.058136	-0.46234	0.003815	0.10574	-0.056305	0.072174	0.25085	0	-0.007019
8.524	0.016327	-0.075989	-0.024567	-0.000916	0.029144	0.032501	-0.13672	0.009155	0.05661	-0.032806	-0.034485	0.006866	0.014648	-0.055237	0.026855	0.001373	0.016479	-0.22476	-0.45487	0.03418	-0.36423	0.040283	-0.14877	0.089264	-0.35523	-0.001221	0.092468	-0.058441	-0.001068	0.15427	0.005035	-0.010834
8.525	0.017395	-0.045624	0.060577	0.001221	-0.003967	0.039978	-0.14191	0.016022	0.059052	-0.027771	-0.052338	-0.00351	-0.025482	-0.076904	0.039368	0.013123	0.006866	-0.17166	-0.27817	-0.028839	0.057373	0.040131	-0.029144	0.005951	-0.27191	-0.01358	0.23025	0.054474	-0.088043	0.24078	0.009308	-0.00885
8.526	0.024109	-0.060272	0.029755	-0.002899	0.002747	0.037384	-0.16144	0.010071	0.046234	-0.020294	-0.014954	-0.000458	-0.022125	-0.053406	0.028381	0.006714	0.001984	-0.19806	-0.19898	-0.020142	0.22614	0.052185	-0.062408	0.14557	0.07019	-0.006714	0.42923	0.034332	-0.16159	0.26138	0.000916	-0.011444
8.527	0.011444	-0.055389	0.011444	0.000916	-0.001373	0.040131	-0.17227	0.006714	0.067444	-0.030823	0.018005	-0.000153	0.012512	-0.044098	-0.080566	0.009766	0.000305	-0.19287	-0.55695	-0.026855	0.28992	0.020752	0.14969	0.22644	0.15152	-0.001678	0.042267	0.001831	-0.14572	0.10864	0.005035	-0.01297
8.528	0.015411	-0.064392	0.013123	0.010223	0.002136	0.060425	-0.16998	0.010986	0.057526	-0.042114	0.13626	0.002899	0.046387	-0.011292	-0.060577	0.002136	0.006256	-0.21332	-0.50461	-0.010834	0.25574	0.050049	0.22537	0.13825	0.011139	0.017395	-0.17197	-0.009003	0.03418	-0.12451	0.00351	-0.011292
